name cmcinput
datacolumns 36
datarows 11
range 0.4451162790697665 0.4551162790697665
cursor 1.0 1.0 0.0
keys m_key
wrap
enforce_loops no
enforce_constraints no
calc_derivatives 0.001000
event_color 1.000000 0.000000 1.000000
endheader
time						calcn_r_tx						calcn_r_ty				calcn_r_tz					calcn_r_r1					calcn_r_r2					calcn_r_r3					calcn_l_tx					calcn_l_ty						calcn_l_tz					calcn_l_r1				calcn_l_r2					calcn_l_r3					pelvis_tz					pelvis_tx					pelvis_ty					pelvis_tilt					pelvis_list					pelvis_rotation				hip_flexion_r				hip_adduction_r				hip_rotation_r				knee_angle_r				ankle_angle_r				subtalar_angle_r				mtp_angle_r				hip_flexion_l				hip_adduction_l				hip_rotation_l				knee_angle_l				ankle_angle_l				subtalar_angle_l				mtp_angle_l				lumbar_extension			lumbar_bending				lumbar_rotation			
      0.4451162790697665	      0.7934529940481681	      0.0694288280120731	     -0.5915627799367642	    -10.8084593798509200	     15.2328062050720070	     -0.2265457973034734	      0.2838111337628788	      0.1054905711645658	     -0.8123230569795303	     -0.4669716714088428	      2.6183896296642022	    -23.1555378767957730	     -0.7905771846404641	      0.7050770375492734	      0.8220204139840630	     -2.9383947290693420	     -4.3477526853551298	     15.9007338896759980	     27.6508317835571090	     -7.0281662124412847	      2.0466160854777895	    -24.8806161525877130	     -1.8157427648511699	      0.0000000000000000	      0.0000000000000000	    -10.9890191711903690	     -5.6595135910825043	     10.2337759042219630	    -18.5256739316516740	     10.6793459471688570	      0.0000000000000000	      0.0000000000000000	     -8.4394967373235676	      7.0924380357919796	    -11.5696611050958240	    
      0.4461162790697665	      0.7944451472227414	      0.0692666853974266	     -0.5917272028456142	    -10.7875745266091290	     15.2765427019968050	     -0.2076024290999649	      0.2842224655511819	      0.1062228375751647	     -0.8123098388167901	     -0.4620187867274267	      2.6245401141714688	    -23.3846947256002730	     -0.7904819016063143	      0.7065408413044206	      0.8220067900976906	     -2.9520880864162864	     -4.3802379336229285	     15.9008856005298860	     27.6241174494117490	     -6.9606727986686554	      2.0622797028592075	    -24.8560684974232550	     -1.7697575841622650	     -0.0000000000000000	     -0.0000000000000000	    -10.9999320320339890	     -5.7079391725212192	     10.2333761788234320	    -18.6358597239867020	     10.5948268951750360	      0.0000000000000000	      0.0000000000000000	     -8.3731719390919253	      7.1393525751880125	    -11.6384407919981130	    
      0.4471162790697665	      0.7954267956271575	      0.0691006019762792	     -0.5918930618244113	    -10.7664715932319020	     15.3203618987228400	     -0.1877935245455599	      0.2846376540161205	      0.1069577509335772	     -0.8122966135274938	     -0.4573099475859445	      2.6301044833587879	    -23.6147223124262810	     -0.7903859981688960	      0.7080044058772551	      0.8219922893497124	     -2.9657798834660971	     -4.4127556939356154	     15.9008553990135560	     27.5965632751424150	     -6.8926407511115402	      2.0782493134479800	    -24.8313225793452050	     -1.7221462996777430	     -0.0000000000000000	     -0.0000000000000001	    -11.0100201453386720	     -5.7560646546846890	     10.2335266688844370	    -18.7477699970156880	     10.5102579088751700	      0.0000000000000000	     -0.0000000000000001	     -8.3073071145232209	      7.1864119066096110	    -11.7067889982340570	    
      0.4481162790697665	      0.7963975492200892	      0.0689303964381264	     -0.5920602356449485	    -10.7451839624823810	     15.3641431901758840	     -0.1668099269394304	      0.2850572766005164	      0.1076942229594710	     -0.8122834634986806	     -0.4527967651000581	      2.6349977220818142	    -23.8447839244712830	     -0.7902893846629219	      0.7094677527853174	      0.8219766737095932	     -2.9796406328535538	     -4.4453124182780348	     15.9006077671620090	     27.5683812323602490	     -6.8241073072183775	      2.0945249896934701	    -24.8065246569636850	     -1.6724954333328010	     -0.0000000000000001	      0.0000000000000001	    -11.0191520054928630	     -5.8038605393731659	     10.2341482039184440	    -18.8612338608345670	     10.4263574634792460	      0.0000000000000000	     -0.0000000000000000	     -8.2416955223404607	      7.2335413626011826	    -11.7746536883140660	    
      0.4491162790697665	      0.7973569440344475	      0.0687560024162744	     -0.5922285596015472	    -10.7237308728432070	     15.4078206927313560	     -0.1445072690156484	      0.2854816662298789	      0.1084319365991383	     -0.8122703343742173	     -0.4484667575294897	      2.6392623336490866	    -24.0748341909664280	     -0.7901920263057820	      0.7109309211230854	      0.8219598278283906	     -2.9937617856101815	     -4.4779235800112422	     15.9001433374134540	     27.5396719205259260	     -6.7550913865815927	      2.1110854696139421	    -24.7817789995458570	     -1.6205656549182350	     -0.0000000000000001	      0.0000000000000003	    -11.0272556523797430	     -5.8513257550236419	     10.2352182391921800	    -18.9761242574991370	     10.3430656157962470	      0.0000000000000001	      0.0000000000000001	     -8.1762085196524019	      7.2807061659759347	    -11.8420077434796360	    
      0.4501162790697665	      0.7983044752552259	      0.0685774605027860	     -0.5923978722446253	    -10.7021112758299580	     15.4513719471447550	     -0.1208942795359134	      0.2859110900824687	      0.1091706527976752	     -0.8122572247911027	     -0.4443127230292749	      2.6429180592644967	    -24.3048516788583630	     -0.7900939298462075	      0.7123939611022976	      0.8219417842900635	     -3.0081235984121979	     -4.5106220670734993	     15.8994940137983410	     27.5103952712469530	     -6.6855735742582549	      2.1278753074304411	    -24.7571409662709280	     -1.5662843495721848	     -0.0000000000000001	      0.0000000000000007	    -11.0343651352632740	     -5.8985125346383320	     10.2367504888774350	    -19.0923302912963850	     10.2603200391331500	      0.0000000000000000	      0.0000000000000002	     -8.1108341113425926	      7.3279296011571349	    -11.9088395667710360	    
      0.4511162790697665	      0.7992396354233384	      0.0683948872946942	     -0.5925680321373381	    -10.6803082392218510	     15.4947985512656140	     -0.0960823031545781	      0.2863457510836092	      0.1099102070221152	     -0.8122441553503449	     -0.4403297072644916	      2.6459703134361741	    -24.5348190784466770	     -0.7899951281500183	      0.7138569261145412	      0.8219226982353362	     -3.0226145403291582	     -4.5434490874076197	     15.8987100383943930	     27.4804002655825350	     -6.6155062396895987	      2.1448136507095574	    -24.7326294626264380	     -1.5096938832162521	     -0.0000000000000002	      0.0000000000000013	    -11.0406018022020620	     -5.9455087952103707	     10.2387729649094460	    -19.2097640272972580	     10.1780797434543830	      0.0000000000000000	      0.0000000000000004	     -8.0456609827274370	      7.3752756940831103	    -11.9751439988395220	    
      0.4521162790697665	      0.8001619466850624	      0.0682084459577003	     -0.5927389193857140	    -10.6582967113302270	     15.5381101618237430	     -0.0702302021460832	      0.2867857825138510	      0.1106505269647270	     -0.8122311455224132	     -0.4365154792516718	      2.6484154348086775	    -24.7647258449699520	     -0.7898956642591259	      0.7153198629179053	      0.8219027994484646	     -3.0370681162341766	     -4.5764452395047570	     15.8978465258619610	     27.4494755140814770	     -6.5448281654270666	      2.1618099525728627	    -24.7082469507650090	     -1.4508925068173095	     -0.0000000000000003	      0.0000000000000019	    -11.0461339904036070	     -5.9924144568071602	     10.2413161485345870	    -19.3283748505028580	     10.0963282674420130	      0.0000000000000000	      0.0000000000000005	     -7.9808421387209032	      7.4228266911292868	    -12.0409147021031360	    
      0.4531162790697665	      0.8010709827465933	      0.0680183290873542	     -0.5929104309758307	    -10.6360503466437030	     15.5813142823383770	     -0.0435046854675285	      0.2872312480258958	      0.1113916409429233	     -0.8122181998939112	     -0.4328711197857376	      2.6502435766810968	    -24.9945694643187650	     -0.7897955771853736	      0.7167828025997785	      0.8218823433602294	     -3.0513003436821191	     -4.6096442492924865	     15.8969520144481780	     27.4173998495779470	     -6.4734773333028226	      2.1787794948924724	    -24.6839990310164130	     -1.3899903906032707	     -0.0000000000000004	      0.0000000000000027	    -11.0511355432439370	     -6.0393210742305881	     10.2444053512701300	    -19.4481613497124530	     10.0150761577145960	     -0.0000000000000000	      0.0000000000000007	     -7.9165564479534467	      7.4706634550661519	    -12.1061382459080690	    
      0.4541162790697665	      0.8019663807807215	      0.0678247545161380	     -0.5930824759927094	    -10.6135455549652460	     15.6244110098925330	     -0.0160611192517856	      0.2876821525072558	      0.1121336721907448	     -0.8122053001251891	     -0.4294009023035000	      2.6514422080727544	    -25.2243573331693870	     -0.7896948906550755	      0.7182457541881244	      0.8218615704163714	     -3.0651408386805659	     -4.6430699016406862	     15.8960598132836000	     27.3839837791825570	     -6.4013997774903375	      2.1956549047956297	    -24.6599094335321000	     -1.3270872463376562	     -0.0000000000000005	      0.0000000000000035	    -11.0557524939075920	     -6.0862979948144016	     10.2480546493108570	    -19.5691747186906260	      9.9343574945259956	     -0.0000000000000001	      0.0000000000000008	     -7.8529758355654566	      7.5188516335065705	    -12.1707897661731540	    
      0.4551162790697665	      0.8028478474942352	      0.0676279606754207	     -0.5932549742160975	    -10.5907640267663370	     15.6673889222793150	      0.0119712066935586	      0.2881384647832498	      0.1128768154540885	     -0.8121924018893810	     -0.4261113461478558	      2.6519999969145309	    -25.4541060063553600	     -0.7895936054312477	      0.7197087019469897	      0.8218406772872595	     -3.0784547080365510	     -4.6767356966657792	     15.8951824627036750	     27.3490980494597800	     -6.3285542714877803	      2.2123922890689949	    -24.6360297163777560	     -1.2622552625440173	     -0.0000000000000005	      0.0000000000000042	    -11.0600817472798680	     -6.1333854859883736	     10.2522619577013480	    -19.6915119930053420	      9.8542231147254782	     -0.0000000000000001	      0.0000000000000010	     -7.7902413416027301	      7.5674339630080345	    -12.2348302633622070	    
